<?xml version="1.0" encoding="UTF-8"?>
<svg width="752pt" height="752pt" version="1.1" viewBox="0 0 752 752" xmlns="http://www.w3.org/2000/svg">
 <g>
  <path d="m553.59 580.59-12.312-45.938c-8.0508-31.73-34.57-54.934-66.773-59.199l-28.414-3.7891-8.5234-25.102c23.207-16.102 40.727-41.203 47.832-71.512 8.0508-4.2617 21.312-15.156 21.312-42.621 0-19.891-3.3164-31.73-9.9453-38.359-4.2617-4.7344-9.4727-6.1562-13.262-6.6289 3.3164-20.363 6.1562-44.516 5.6836-59.672-0.94531-31.258-16.102-51.148-40.254-43.57-34.574-22.258-83.828-40.254-139.71-30.309 0.94531 3.3164 4.2617 13.262 5.2109 18.469-19.418-8.9961-35.52-7.1055-35.52-7.1055s-8.9961 23.68-1.4219 48.777c-4.7344 14.207-8.0508 46.41-7.1055 73.879-3.7891 0.47266-9.4727 1.4219-13.734 6.1562-7.1055 6.6289-10.418 18.941-10.418 38.832 0 27.469 13.262 38.359 21.312 42.621 7.1055 29.836 24.625 54.934 47.832 71.039l-8.5234 25.102-28.887 3.7891c-32.676 4.2617-58.723 27.469-66.773 59.199l-12.312 45.938c-1.4219 5.2109-0.47266 10.418 2.8398 14.207 2.8398 4.2617 8.0508 6.1562 12.785 6.1562h322.98c5.2109 0 9.9453-2.3672 12.785-6.1562 3.3164-4.2578 4.2656-9.4688 3.3164-14.203zm-107.5-332.46c9.4727 12.312 13.262 27.941 15.156 41.676h-170.49c1.8945-13.262 6.1562-28.414 15.156-42.148 25.098 10.895 72.457 31.73 140.18 0.47266zm-9.9453 54.938-1.4219 26.047c0 4.7344-3.7891 8.0508-8.5234 8.0508h-22.258c-4.2617 0-8.0508-3.3164-8.5234-7.5781l-3.3164-26.52zm-76.246 0-3.3164 26.52c-0.47266 4.2617-4.2617 7.5781-8.5234 7.5781h-22.258c-4.7344 0-8.5234-3.7891-8.5234-8.0508l-1.4219-26.047zm-75.297 63.461c-0.47266-3.7891-3.7891-6.6289-7.1055-7.5781-1.4219-0.47266-12.785-4.2617-12.785-26.52 0-19.418 3.3164-24.152 5.2109-25.574 0 0 0.94531 0 1.4219-0.47266 0.47266 5.6836 1.4219 10.418 2.3672 14.68 0.47266 1.8945 2.3672 3.3164 4.2617 3.3164h7.5781c2.8398 0 4.7344-2.3672 4.2617-4.7344-0.47266-3.7891-0.47266-9.4727-0.47266-16.574h12.785l1.4219 26.52c0.47266 11.84 10.418 20.836 22.258 20.836h22.258c10.891 0 20.363-8.5234 21.785-19.418l3.3164-27.941h4.7344l3.3164 27.941c1.4219 10.891 10.891 19.418 21.785 19.418h22.258c11.84 0 21.312-9.4727 22.258-20.836l1.4219-26.52h12.785c0.47266 7.1055 0 13.262-0.47266 17.051 0 2.3672 1.8945 4.7344 4.2617 4.7344h6.1562c2.3672 0 4.2617-1.4219 4.2617-3.7891 0.47266-3.3164 1.4219-8.5234 2.8398-14.68 0.94531 0 2.3672 0 2.8398 0.94531 0.94531 0.94531 4.7344 5.6836 4.7344 25.102 0 22.258-11.84 26.047-12.785 26.52-3.7891 0.94531-6.6289 3.7891-7.1055 7.5781-8.9961 46.883-46.883 80.98-91.402 80.98-43.094-0.003906-81.453-34.102-90.449-80.984zm91.875 99.926c15.629 0 30.309-3.7891 44.043-10.418l8.5234 24.625c-31.73 23.207-74.352 23.207-106.08 0l8.5234-24.625c13.734 6.1523 28.891 10.418 44.992 10.418z"/>
  <path d="m376 403.47c13.734 0 26.992-5.2109 34.098-13.262 2.3672-2.8398 1.8945-7.1055-0.94531-9.4727s-7.1055-2.3672-9.4727 0.94531c-8.9961 10.418-38.359 10.418-47.359 0-2.3672-2.8398-6.6289-3.3164-9.4727-0.94531-2.8398 2.3672-3.3164 6.6289-0.94531 9.4727 7.1055 8.0508 20.363 13.262 34.098 13.262z"/>
  <path d="m347.59 320.12c0 5.4961-4.4531 9.9453-9.9453 9.9453s-9.9453-4.4492-9.9453-9.9453c0-5.4922 4.4531-9.9453 9.9453-9.9453s9.9453 4.4531 9.9453 9.9453"/>
  <path d="m424.31 320.12c0 5.4961-4.4531 9.9453-9.9453 9.9453-5.4961 0-9.9453-4.4492-9.9453-9.9453 0-5.4922 4.4492-9.9453 9.9453-9.9453 5.4922 0 9.9453 4.4531 9.9453 9.9453"/>
 </g>
</svg>
