<?xml version="1.0" encoding="UTF-8"?>
<svg width="752pt" height="752pt" version="1.1" viewBox="0 0 752 752" xmlns="http://www.w3.org/2000/svg">
 <g>
  <path d="m393.68 261.43h-34.285l-18.652-32.32-9.1211 5.2617 21.703 37.582h46.426l21.695-37.582-9.1133-5.2617z"/>
  <path d="m341.73 208.48h10.523v-7.3555h7.3633v-10.523h-7.3633v-7.3789h-10.523v7.3789h-7.3711v10.523h7.3711z"/>
  <path d="m400.83 208.49h10.523v-7.3633h7.3633v-10.523h-7.3633v-7.3789h-10.523v7.3789h-7.3711v10.523h7.3711z"/>
  <path d="m488.44 318.37c-13.383 0-24.273 10.887-24.273 24.273v3.0469h-15.27v-9.0625c0-10.07-8.1914-18.266-18.258-18.266h-34.062v-19.105h67.555c12.766 0 23.148-10.383 23.148-23.137l-0.003906-103.27c0-12.766-10.383-23.148-23.148-23.148h-175.18c-12.766 0-23.148 10.387-23.148 23.148v103.27c0 12.762 10.387 23.137 23.148 23.137h67.555v19.105h-34.062c-10.066 0-18.254 8.1914-18.254 18.266v9.0625h-16.355v-3.0547c0-13.387-10.887-24.273-24.273-24.273s-24.273 10.887-24.273 24.273v103.41c0 13.387 10.887 24.273 24.273 24.273s24.273-10.887 24.273-24.273v-62.531h16.355v61.309c0 10.062 8.1875 18.25 18.254 18.25h108.2c10.066 0 18.258-8.1875 18.258-18.25v-61.309h15.27v62.535c0 13.387 10.887 24.273 24.273 24.273 13.387 0 24.273-10.887 24.273-24.273v-103.41c-0.003906-13.387-10.891-24.273-24.277-24.273zm-224.88 141.44c-7.582 0-13.75-6.168-13.75-13.75v-103.41c0-7.582 6.168-13.75 13.75-13.75s13.75 6.168 13.75 13.75v89.848h-8.4883v-9.3672h-10.523v19.891h19.012v3.0352c0 7.5898-6.168 13.758-13.75 13.758zm24.273-86.809v-16.781h16.355v16.781zm-11.512-96.871v-103.27c0-6.9609 5.6602-12.625 12.625-12.625h175.18c6.9609 0 12.625 5.6602 12.625 12.625v103.27c0 6.957-5.6602 12.613-12.625 12.613l-175.18-0.003906c-6.9688 0-12.629-5.6562-12.629-12.609zm90.707 23.137h19.027v19.105h-19.027zm71.34 145.57c0 4.2617-3.4688 7.7266-7.7344 7.7266h-108.19c-4.2617 0-7.7305-3.4609-7.7305-7.7266v-108.2c0-4.2656 3.4688-7.7422 7.7305-7.7422h108.2c4.2656 0 7.7344 3.4727 7.7344 7.7422v108.2zm10.523-71.832v-16.781h15.27v16.781zm53.297 73.059c0 7.582-6.168 13.75-13.75 13.75-7.582 0-13.75-6.168-13.75-13.75v-3.0352h19.012v-19.891h-10.523v9.3672h-8.4883v-89.855c0-7.582 6.168-13.75 13.75-13.75 7.582 0 13.75 6.168 13.75 13.75z"/>
  <path d="m444.77 568.55v-80.078c0-13.551-11.023-24.574-24.566-24.574h-2.7266c-13.551 0-24.566 11.023-24.566 24.574v80.078c-7.8516 1.4453-14.113 7.2461-16.359 14.793-2.2461-7.5469-8.5156-13.34-16.363-14.793l-0.003906-80.078c0-13.551-11.023-24.574-24.574-24.574h-2.7266c-13.551 0-24.566 11.023-24.566 24.574v80.078c-9.8398 1.8203-17.328 10.43-17.328 20.789 0 3.5781 0.91406 7.1211 2.6484 10.246l1.5 2.7188h78.242l1.5-2.7188c0.71094-1.2852 1.2461-2.6523 1.6797-4.0469 0.42969 1.3945 0.96484 2.7578 1.6719 4.0469l1.5 2.7188h78.242l1.5-2.7188c1.7383-3.1328 2.6484-6.6758 2.6484-10.246-0.011719-10.367-7.5039-18.977-17.352-20.789zm-111.89-94.129h2.7266c7.75 0 14.051 6.2969 14.051 14.051v79.688h-30.824l-0.003906-79.688c0-7.7539 6.3047-14.051 14.051-14.051zm33.828 117.36h-64.922c-0.1875-0.78906-0.27734-1.6094-0.27734-2.4414 0-5.8789 4.7773-10.656 10.648-10.656h44.176c5.8789 0 10.66 4.7773 10.66 10.656 0 0.83203-0.09375 1.6445-0.28516 2.4414zm50.77-117.36h2.7266c7.7461 0 14.043 6.2969 14.043 14.051v79.688h-30.82v-79.688c0-7.7539 6.3047-14.051 14.051-14.051zm33.828 117.36h-64.926c-0.1875-0.78906-0.27734-1.6094-0.27734-2.4414 0-5.8789 4.7773-10.656 10.648-10.656h44.18c5.8789 0 10.656 4.7773 10.656 10.656 0 0.83203-0.097657 1.6445-0.28125 2.4414z"/>
 </g>
</svg>
